<?xml version="1.0" encoding="UTF-8" standalone="no"?>
<!-- Created with Inkscape (http://www.inkscape.org/) -->

<svg
   width="135mm"
   height="135mm"
   viewBox="0 0 135 135"
   version="1.1"
   id="svg1"
   inkscape:version="1.4.2 (f4327f4, 2025-05-13)"
   sodipodi:docname="icon.svg"
   xmlns:inkscape="http://www.inkscape.org/namespaces/inkscape"
   xmlns:sodipodi="http://sodipodi.sourceforge.net/DTD/sodipodi-0.dtd"
   xmlns="http://www.w3.org/2000/svg"
   xmlns:svg="http://www.w3.org/2000/svg">
  <sodipodi:namedview
     id="namedview1"
     pagecolor="#505050"
     bordercolor="#eeeeee"
     borderopacity="1"
     inkscape:showpageshadow="0"
     inkscape:pageopacity="0"
     inkscape:pagecheckerboard="0"
     inkscape:deskcolor="#505050"
     inkscape:document-units="mm"
     inkscape:zoom="0.71891835"
     inkscape:cx="397.12437"
     inkscape:cy="541.78614"
     inkscape:window-width="1920"
     inkscape:window-height="1009"
     inkscape:window-x="-8"
     inkscape:window-y="-8"
     inkscape:window-maximized="1"
     inkscape:current-layer="layer1" />
  <defs
     id="defs1" />
  <g
     inkscape:label="Layer 1"
     inkscape:groupmode="layer"
     id="layer1">
    <g
       fill="None"
       fill-opacity="0"
       stroke="#c8bdf8"
       stroke-opacity="1"
       stroke-width="0.3"
       id="g2"
       transform="matrix(0.26458333,0,0,0.26458333,-111.86543,-29.514676)">
      <path
         d="m 793,323 c 14.96,14.96 21.52,35.82 18,57 2.49,-5.23 1.47,-12.29 2.78,-17.22 1.31,-4.93 10,-1.04 12.22,-0.78 1.12,-2.32 2.64,-3.43 4,-1 0.92,-3.14 0.05,-3.46 -1,-6 4.7,-4.64 4.36,-9.92 6.92,-16.08 2.55,-6.17 2.1,-11.9 2.08,-17.92 4.46,-0.18 4.97,1.46 8,1 2.09,-7.24 7.94,-7.63 12,-13 -1.53,-1.27 -3.95,0.46 -5,-2 3.53,-1.43 -0.95,-3.23 0,-6 6.78,1.52 0.66,6.29 7,7 -0.55,-2.37 1.54,-5.14 4,-5 -0.2,-2.23 -3.13,-1.22 -2,-5 2.13,0.57 3.43,2.47 6,3 0.15,-4.53 3.48,-5.79 6,-10 -0.09,-3.16 -3.09,-5.46 -6,-6 -0.2,-2.87 1.46,-4.85 -1,-7 4.9,-1.56 7.79,-5.65 11,-6 -7.55,-38.43 -29.8,-73.8 -58,-102 -7.32,-7.32 -16.65,-13.78 -25,-19 -8.28,-3.57 -15.64,-8.69 -24.3,-11.69 -8.67,-3.01 -16.72,-6.22 -25.48,-9.53 -8.75,-3.31 -19.07,-4.63 -28.22,-6.78 -9.15,-2.15 -23.3,-1.13 -32,-3 -8.7,-1.87 -27.6,0.24 -22.75,9.75 4.85,9.51 15.04,6.86 21.05,13.95 6.01,7.09 14.08,8.42 20.95,14.05 6.88,5.63 12.66,9.53 20,15 7.33,5.47 10.81,12.05 14.98,20.02 4.17,7.97 5.76,21.22 3.76,30.22 -2,9 -5.62,17.32 -10.74,24.26 -5.13,6.94 -12.19,11.96 -16.5,18.5 -4.3,6.55 -12.1,13.19 -16.5,18.5 -4.41,5.31 -17.12,15.05 -10.5,21 6.62,5.94 18,-5.05 26.25,-5.25 8.25,-0.2 23.93,-3.91 32.93,-1.93 9,1.99 18.35,4.81 25.99,9.01 7.65,4.19 13.75,9.16 19.08,15.92 z"
         id="path2" />
    </g>
    <g
       fill="None"
       fill-opacity="0"
       stroke="#d8f2f4"
       stroke-opacity="1"
       stroke-width="0.3"
       id="g3"
       transform="matrix(0.26458333,0,0,0.26458333,-111.86543,-29.514676)">
      <path
         d="m 567,148 c 11.66,-4.86 21.05,-11.72 34,-13 12.96,-1.28 23.49,7.38 34,13 -10.25,-6.89 -20.04,-15.31 -34,-14 -13.96,1.31 -22.38,7.86 -34,14 z"
         id="path3" />
    </g>
    <g
       fill="None"
       fill-opacity="0"
       stroke="#baeeeb"
       stroke-opacity="1"
       stroke-width="0.3"
       id="g4"
       transform="matrix(0.26458333,0,0,0.26458333,-111.86543,-29.514676)">
      <path
         d="m 567,148 c -14.3,5.96 -28.18,15.07 -40,26 -8.07,7.46 -17.8,15.53 -23,25 2.48,-1.35 3.06,-5 6,-6 1.2,3.88 -1.77,2.51 -2,5 2.55,2.26 3.49,-2.07 3,-4 3.25,2.72 0.36,6.74 5,7 -1.82,2.98 0.52,6.23 4,6 1.23,-1.49 -0.25,-3.52 3,-4 5.01,-0.01 2.47,9.48 9,7 -6.07,6.51 0.25,17.22 -5,24 -1.43,-2.66 -3.06,-4.56 -3,-8 4.47,0.13 1.41,-3.11 3,-6 -2.27,-1.72 -5.34,-0.73 -8,-1 5.15,4.79 -4.36,12.36 4,9 -4.89,3.32 1.59,6.38 -3,10 -6.56,-2.39 -0.95,-13.77 -10,-13 0.11,3.26 0.45,6.61 -2,9 8.93,0.44 4.99,13.8 6,20 0.97,-3.12 2.96,-2.83 6,-2 -0.08,-4.1 -0.77,-6.81 -1,-11 -3.51,2.62 -2.57,-1.81 -2,-4 3.42,1.09 4.42,5.21 8,5 -2.87,3.78 -2.7,3.78 0,6 -2.88,-0.02 -4.34,2.63 -3,5 1.51,-3.44 4.95,-0.06 8,-1 -3.06,1.48 -4.21,3.63 -5,7 -4.96,0.32 -4.34,-5.29 -9,-5 1.09,6.95 1.24,15.88 6,19 -29.9,42.38 -58.3,96.95 -51,153 2.13,-2.43 0.47,-6.82 1,-10 2.92,4.93 -0.93,13.15 2,18 -2.5,-25.79 2.7,-59.08 10.98,-82.02 8.28,-22.95 18.15,-43.64 33.27,-61.73 15.12,-18.1 28.3,-35.32 48.45,-46.55 20.14,-11.23 42.71,-26.53 66.3,-28.7 3.94,-2.79 -0.58,-5.68 -4,-4 1.01,-3.07 -0.8,-8.85 4,-10 -2.39,-0.72 -4.3,-3.41 0,-3 -3.77,-5.08 -2.24,-12.52 -1,-19 -3.78,-0.75 -2.05,-3.3 -3,-6 6.06,3.89 2.9,-3.28 4,-8 -7.56,1.43 -0.44,-7.03 -3,-11 2.89,-1.05 3.87,-3.57 5,-6 -10.51,-5.62 -21.04,-14.28 -34,-13 -12.95,1.28 -22.34,8.14 -34,13 z"
         id="path4" />
    </g>
    <g
       fill="None"
       fill-opacity="0"
       stroke="#b6def5"
       stroke-opacity="1"
       stroke-width="0.3"
       id="g5"
       transform="matrix(0.26458333,0,0,0.26458333,-111.86543,-29.514676)">
      <path
         d="m 633,215 c 2.88,-0.27 4.73,-1.55 4,3 -1.97,-0.43 -5.14,-2.13 -6,1 2.18,5.93 0.34,16.7 1,25 1.76,-1.58 3.9,-2.76 6,-1 -5.47,2.14 -3.19,6.33 -4,11 7.43,0.82 -0.87,13.82 7,15 -3.94,-0.96 -1.62,2.77 -3,5 1.93,-0.16 5.49,1.92 2,3 1.35,1.89 3.26,2.67 5,4 -1.36,3.73 -2.31,-1.5 -4,1 0.3,4.92 2.54,9.87 0,15 -2.54,5.13 3.58,9.49 -2,14 -2.64,-4.28 -5.69,2.28 -8,3 2.85,1.47 -0.01,5.09 3,5 7.37,-1.49 11.69,-11.02 16.92,-16.08 5.23,-5.06 11.28,-12.03 15.08,-17.92 3.98,-6.16 10.25,-10.76 14,-17 -5.27,1.7 -6.22,-5.68 -11,-6 3.03,-3.84 1.73,-6.72 1.76,-8.39 0.02,-1.68 -0.25,-7.71 -1.76,-10.61 3.23,-0.1 2.1,-4.04 5,-4 -8.19,-3.73 2.27,-21.16 -6,-24 -0.61,-2.71 3.83,-0.34 3,-4 -3.7,-1.1 -2.39,-2.49 1,-2 1.31,-6.52 -5.98,-2.45 -7,-8 2.42,0.4 4.13,-1.24 7,1 2.32,-0.96 1.45,-4.97 5,-4 0.12,-3.48 -1.33,-4.6 -5,-5 5.09,-1.77 5.19,-6.15 7,-10 1.66,3.74 6.74,0.94 8,-2 -8.51,-5.05 -16.55,-12.53 -25.25,-17.75 -8.7,-5.21 -18.53,-9.72 -26.75,-15.25 -1.13,2.43 -2.11,4.95 -5,6 2.56,3.97 -4.56,12.43 3,11 -1.1,4.72 2.06,11.89 -4,8 0.95,2.7 -0.78,5.25 3,6 -1.24,6.48 -2.77,13.92 1,19 -4.3,-0.41 -2.39,2.28 0,3 -4.8,1.15 -2.99,6.93 -4,10 3.42,-1.68 7.94,1.21 4,4 z"
         id="path5" />
    </g>
    <g
       fill="None"
       fill-opacity="0"
       stroke="#d4ddf5"
       stroke-opacity="1"
       stroke-width="0.3"
       id="g6"
       transform="matrix(0.26458333,0,0,0.26458333,-111.86543,-29.514676)">
      <path
         d="m 820,170 c 0.98,0.48 1.78,1.23 3,1 -3.24,-4.01 -8.64,-6.27 -12,-10 -5.02,-3.89 -10.14,-7.47 -16,-10 8.35,5.22 17.68,11.68 25,19 z"
         id="path6" />
    </g>
    <g
       fill="None"
       fill-opacity="0"
       stroke="#bbe1fa"
       stroke-opacity="1"
       stroke-width="0.3"
       id="g7"
       transform="matrix(0.26458333,0,0,0.26458333,-111.86543,-29.514676)">
      <path
         d="m 820,170 c 28.2,28.2 50.45,63.57 58,102 13.5,68.69 -5.46,136.87 -50,189 -3.35,3.92 -9.94,8.59 -10,13 10.93,-5.02 24.03,-22.33 32,-35 2.7,1.22 3.6,4.55 0,5 3.32,1.7 1.93,5.19 -1,6 5.63,-2.23 7.3,7.96 13,4 -0.96,2.65 -3.18,6.26 1,3 1.47,1.15 -1.96,3.21 -2,5 4.95,-2.37 5.35,2.36 9,4 -0.78,3.32 -3.68,3.82 -0.08,7.08 3.61,3.25 1.95,2.89 0.08,6.92 -3.67,-1.92 -5.74,-4.55 -7,-8 -1.07,3.82 -1.19,6.75 -3,10 1.2,2.64 4.82,3.17 6,6 -3.28,-0.98 -5.79,-1.59 -9,-2 1.73,3.55 3.88,6.93 4,11 2.68,-2.55 3.18,2.52 5,-1 1.52,3.45 2.81,6.34 3,10 8.21,5.76 11.3,-2.85 16,-8 -0.03,2.37 -2.5,3.72 -3,6 15.37,-14.79 18.7,-36.19 27.08,-55.92 8.37,-19.74 10.68,-46.63 11.92,-69.08 1.24,-22.45 -3.01,-53.17 -7.22,-73.78 -4.21,-20.6 -15.3,-40.94 -24.01,-58.99 -8.7,-18.06 -22.12,-33.74 -35.02,-47.98 C 841.86,184 826.92,168.76 811,161 c 3.36,3.73 8.76,5.99 12,10 -1.22,0.23 -2.02,-0.52 -3,-1 z"
         id="path7" />
    </g>
    <g
       fill="None"
       fill-opacity="0"
       stroke="#baeedd"
       stroke-opacity="1"
       stroke-width="0.3"
       id="g8"
       transform="matrix(0.26458333,0,0,0.26458333,-111.86543,-29.514676)">
      <path
         d="m 441,314 c -1.45,12.62 -3.21,26.99 -6,39 -0.8,11.81 -1.33,26.3 0,38 1.34,11.69 2.66,23.16 5.02,33.98 2.37,10.81 4.78,21.53 8.72,31.28 3.95,9.74 6.24,18.9 11.49,27.51 5.25,8.61 9.05,16.47 14.52,24.48 5.47,8.02 11.22,15.48 17,23 5.78,7.51 12.26,13.26 19,20 6.74,6.73 13.69,11.99 21,18 7.31,6 15.35,11.73 23.56,16.45 8.2,4.71 16.36,10.52 25.47,13.52 9.1,3 17.97,6.2 28,10 10.03,3.81 21.76,6.81 33,6 11.24,-0.81 23.3,8.78 34.99,3.55 11.69,-5.23 -5.11,-16.03 -12.07,-19.47 -6.96,-3.43 -16.19,-10.61 -23.45,-15.55 -7.27,-4.93 -13.41,-12.54 -21.5,-17.5 -8.09,-4.96 -13.47,-13.41 -17.77,-22.22 -4.31,-8.82 -4.98,-23.25 -1.96,-33.01 3.03,-9.75 7.05,-18.24 14.23,-25.77 7.18,-7.54 12.7,-11.51 20.5,-18.5 7.8,-6.99 11.15,-12.29 20.95,-18.05 9.79,-5.77 8.9,-23.07 -3.62,-15.62 -12.53,7.44 -19.31,5.75 -32.08,6.92 -12.77,1.17 -23.26,-0.85 -32.92,-6.08 -9.67,-5.23 -15.93,-9.11 -23.16,-16.84 -7.24,-7.73 -10.8,-14 -14.99,-24.01 C 544.73,383.06 544,370.34 544,359 c 0,-1 -0.03,-2 0,-3 -0.29,1.19 -1.8,3.16 -1,5 -3.36,-0.55 -0.6,-4.09 -2,-5 -4.05,2.57 -3.88,5.22 -8,6 2.78,1.11 0.44,3.49 1,6 -3.09,-2.7 -4.74,2.33 -2,4 -5.47,0.23 0.3,0.61 1,3 -6.92,-1.98 -6.57,6.19 -9.3,9.7 -2.74,3.5 -2.67,15.7 -6.7,9.3 0.47,3.44 -2.56,6.97 2,8 -4.39,2.6 -2.56,11.27 -9,11 6.92,6.4 -7.05,6.52 -5,13 -2.28,1.39 -4.52,2.78 -6,0 -2.04,1.24 -3.73,3.18 -3,6 -2.53,0.29 -4.03,1.05 -6,-1 -1.18,2.36 -1.59,3.18 -4,1 -1.49,5.1 -8.14,7.46 -9,13 -0.75,-3.87 -3.26,-6.62 -3,-11 -2.93,-4.85 0.92,-13.07 -2,-18 -0.53,3.18 1.13,7.57 -1,10 -7.3,-56.05 21.1,-110.62 51,-153 -4.76,-3.12 -4.91,-12.05 -6,-19 4.66,-0.29 4.04,5.32 9,5 0.79,-3.37 1.94,-5.52 5,-7 -3.05,0.94 -6.49,-2.44 -8,1 -1.34,-2.37 0.12,-5.02 3,-5 -2.7,-2.22 -2.87,-2.22 0,-6 -3.58,0.21 -4.58,-3.91 -8,-5 -0.57,2.19 -1.51,6.62 2,4 0.23,4.19 0.92,6.9 1,11 -3.04,-0.83 -5.03,-1.12 -6,2 -1.01,-6.2 2.93,-19.56 -6,-20 2.45,-2.39 2.11,-5.74 2,-9 9.05,-0.77 3.44,10.61 10,13 4.59,-3.62 -1.89,-6.68 3,-10 -8.36,3.36 1.15,-4.21 -4,-9 2.66,0.27 5.73,-0.72 8,1 -1.59,2.89 1.47,6.13 -3,6 -0.06,3.44 1.57,5.34 3,8 5.25,-6.78 -1.07,-17.49 5,-24 -6.53,2.48 -3.99,-7.01 -9,-7 -3.25,0.48 -1.77,2.51 -3,4 -3.48,0.23 -5.82,-3.02 -4,-6 -4.64,-0.26 -1.75,-4.28 -5,-7 0.49,1.93 -0.45,6.26 -3,4 0.23,-2.49 3.2,-1.12 2,-5 -2.94,1 -3.52,4.65 -6,6 5.2,-9.47 14.93,-17.54 23,-25 -14.97,8.7 -25.8,24.67 -38.75,37.25 -12.95,12.57 -19.23,30.38 -27.94,46.06 -8.72,15.67 -17.13,37.73 -19.31,56.69 z"
         id="path8" />
    </g>
    <g
       fill="None"
       fill-opacity="0"
       stroke="#c1d5fb"
       stroke-opacity="1"
       stroke-width="0.3"
       id="g9"
       transform="matrix(0.26458333,0,0,0.26458333,-111.86543,-29.514676)">
      <path
         d="m 666,285 c 15.19,-18.49 36.22,-34.99 49,-55 4.83,-9.55 4.06,-25.04 -2.75,-33.25 -6.81,-8.2 -16.71,-10.68 -25.25,-15.75 -1.26,2.94 -6.34,5.74 -8,2 -1.81,3.85 -1.91,8.23 -7,10 3.67,0.4 5.12,1.52 5,5 -3.55,-0.97 -2.68,3.04 -5,4 -2.87,-2.24 -4.58,-0.6 -7,-1 1.02,5.55 8.31,1.48 7,8 -3.39,-0.49 -4.7,0.9 -1,2 0.83,3.66 -3.61,1.29 -3,4 8.27,2.84 -2.19,20.27 6,24 -2.9,-0.04 -1.77,3.9 -5,4 1.51,2.9 1.78,8.93 1.76,10.61 -0.03,1.67 1.27,4.55 -1.76,8.39 4.78,0.32 5.73,7.7 11,6 -3.75,6.24 -10.02,10.84 -14,17 z"
         id="path9" />
    </g>
    <g
       fill="None"
       fill-opacity="0"
       stroke="#a8dee7"
       stroke-opacity="1"
       stroke-width="0.3"
       id="g10"
       transform="matrix(0.26458333,0,0,0.26458333,-111.86543,-29.514676)">
      <path
         d="m 633,215 c -23.59,2.17 -46.16,17.47 -66.3,28.7 -20.15,11.23 -33.33,28.45 -48.45,46.55 -15.12,18.09 -24.99,38.78 -33.27,61.73 -8.28,22.94 -13.48,56.23 -10.98,82.02 -0.26,4.38 2.25,7.13 3,11 0.86,-5.54 7.51,-7.9 9,-13 2.41,2.18 2.82,1.36 4,-1 1.97,2.05 3.47,1.29 6,1 -0.73,-2.82 0.96,-4.76 3,-6 1.48,2.78 3.72,1.39 6,0 -2.05,-6.48 11.92,-6.6 5,-13 6.44,0.27 4.61,-8.4 9,-11 -4.56,-1.03 -1.53,-4.56 -2,-8 4.03,6.4 3.96,-5.8 6.7,-9.3 2.73,-3.51 2.38,-11.68 9.3,-9.7 -0.7,-2.39 -6.47,-2.77 -1,-3 -2.74,-1.67 -1.09,-6.7 2,-4 -0.56,-2.51 1.78,-4.89 -1,-6 4.12,-0.78 3.95,-3.43 8,-6 1.4,0.91 -1.36,4.45 2,5 -0.8,-1.84 0.71,-3.81 1,-5 0.62,-18.29 13.53,-35.45 24.3,-49.7 10.77,-14.24 28.1,-24.92 43.7,-31.3 0.57,11.61 -1.21,23.8 1,35 2.75,6.01 13.29,16.2 21,10 0.24,-0.2 0,-1 0,-1 -3.01,0.09 -0.15,-3.53 -3,-5 2.31,-0.72 5.36,-7.28 8,-3 5.58,-4.51 -0.54,-8.87 2,-14 2.54,-5.13 0.3,-10.08 0,-15 1.69,-2.5 2.64,2.73 4,-1 -1.74,-1.33 -3.65,-2.11 -5,-4 3.49,-1.08 -0.07,-3.16 -2,-3 1.38,-2.23 -0.94,-5.96 3,-5 -7.87,-1.18 0.43,-14.18 -7,-15 0.81,-4.67 -1.47,-8.86 4,-11 -2.1,-1.76 -4.24,-0.58 -6,1 -0.66,-8.3 1.18,-19.07 -1,-25 0.86,-3.13 4.03,-1.43 6,-1 0.73,-4.55 -1.12,-3.27 -4,-3 z"
         id="path10" />
    </g>
    <g
       fill="None"
       fill-opacity="0"
       stroke="#d8e7f4"
       stroke-opacity="1"
       stroke-width="0.3"
       id="g11"
       transform="matrix(0.26458333,0,0,0.26458333,-111.86543,-29.514676)">
      <path
         d="m 666,285 c -3.8,5.89 -9.85,12.86 -15.08,17.92 -5.23,5.06 -9.55,14.59 -16.92,16.08 0,0 0.24,0.8 0,1 8.23,-0.03 15.65,-15.5 22.25,-20.75 6.59,-5.25 12.77,-16.86 20,-23 7.23,-6.14 12.91,-16.32 20,-23 7.09,-6.68 14.47,-14.79 18.75,-23.25 -12.78,20.01 -33.81,36.51 -49,55 z"
         id="path11" />
    </g>
    <g
       fill="None"
       fill-opacity="0"
       stroke="#b5b8f8"
       stroke-opacity="1"
       stroke-width="0.3"
       id="g12"
       transform="matrix(0.26458333,0,0,0.26458333,-111.86543,-29.514676)">
      <path
         d="m 811,380 c -0.24,1.47 -0.49,0.98 -1,2 -6.98,34.53 -32.9,66.78 -66,80 -0.39,-13.18 4.36,-38.43 -10.98,-44.02 -15.33,-5.6 -23.03,10.89 -33.27,18.77 -10.23,7.88 -17.4,18.1 -27.5,26.5 -10.1,8.4 -17.81,17.9 -28,27 -10.19,9.1 -21.2,19.81 -19.25,34.75 1.95,14.93 13.77,21.03 24.92,29.08 11.15,8.06 21.37,13.9 32.33,22.67 10.97,8.76 20.67,12.08 31.67,22.33 11,10.26 26.92,10.21 41.08,6.92 2.51,-0.96 4.61,-4.48 8,-4 0.82,-4.94 -3.82,-7.15 -5,-11 3.77,-0.91 8.43,-1.86 8,-7 -5.28,1.44 -6.68,-1.49 -11,-1 -0.16,-7.42 -1.33,-15.38 1,-22 -6.86,6.47 -3.85,-6.83 -9,-8 4.81,-3.15 0.31,-10.95 -4,-10 1.4,-2.09 4,-2.73 3,-6 -4.7,0.32 -2.85,-9.32 -4,-13 -5.36,1.15 -10.22,-0.29 -15,3 0.84,-7.87 12.69,-6.68 19.02,-9.98 6.34,-3.29 13.65,-5.55 20.06,-8.94 6.4,-3.4 13,-6.81 18.92,-11.08 15.99,-8.72 29.75,-22.75 43,-36 44.54,-52.13 63.5,-120.31 50,-189 -3.21,0.35 -6.1,4.44 -11,6 2.46,2.15 0.8,4.13 1,7 2.91,0.54 5.91,2.84 6,6 -2.52,4.21 -5.85,5.47 -6,10 -2.57,-0.53 -3.87,-2.43 -6,-3 -1.13,3.78 1.8,2.77 2,5 -2.46,-0.14 -4.55,2.63 -4,5 -6.34,-0.71 -0.22,-5.48 -7,-7 -0.95,2.77 3.53,4.57 0,6 1.05,2.46 3.47,0.73 5,2 -4.06,5.37 -9.91,5.76 -12,13 -3.03,0.46 -3.54,-1.18 -8,-1 0.02,6.02 0.47,11.75 -2.08,17.92 -2.56,6.16 -2.22,11.44 -6.92,16.08 1.05,2.54 1.92,2.86 1,6 -1.36,-2.43 -2.88,-1.32 -4,1 -2.22,-0.26 -10.91,-4.15 -12.22,0.78 -1.31,4.93 -0.29,11.99 -2.78,17.22 z"
         id="path12" />
    </g>
    <g
       fill="None"
       fill-opacity="0"
       stroke="#d2ecef"
       stroke-opacity="1"
       stroke-width="0.3"
       id="g13"
       transform="matrix(0.26458333,0,0,0.26458333,-111.86543,-29.514676)">
      <path
         d="m 544,356 c -0.03,1 0,2 0,3 6.99,-35.2 32.63,-68.75 67,-82 1.11,10.8 -2.36,23.46 2,33 -2.21,-11.2 -0.43,-23.39 -1,-35 -15.6,6.38 -32.93,17.06 -43.7,31.3 -10.77,14.25 -23.68,31.41 -24.3,49.7 z"
         id="path13" />
    </g>
    <g
       fill="None"
       fill-opacity="0"
       stroke="#dff6ec"
       stroke-opacity="1"
       stroke-width="0.3"
       id="g14"
       transform="matrix(0.26458333,0,0,0.26458333,-111.86543,-29.514676)">
      <path
         d="m 435,353 c 2.79,-12.01 4.55,-26.38 6,-39 -3.57,12.62 -5.03,24.78 -6,39 z"
         id="path14" />
    </g>
    <g
       fill="None"
       fill-opacity="0"
       stroke="#d8d8f3"
       stroke-opacity="1"
       stroke-width="0.3"
       id="g15"
       transform="matrix(0.26458333,0,0,0.26458333,-111.86543,-29.514676)">
      <path
         d="m 810,382 c 0.51,-1.02 0.76,-0.53 1,-2 3.52,-21.18 -3.04,-42.04 -18,-57 12.81,16.23 20.99,37.93 17,59 z"
         id="path15" />
    </g>
    <g
       fill="None"
       fill-opacity="0"
       stroke="#bad6fa"
       stroke-opacity="1"
       stroke-width="0.3"
       id="g16"
       transform="matrix(0.26458333,0,0,0.26458333,-111.86543,-29.514676)">
      <path
         d="m 828,461 c -13.25,13.25 -27.01,27.28 -43,36 -3.76,3.36 0.74,1.79 2,4 -0.67,-5.73 5.96,-1.62 9.75,-6.25 3.79,-4.63 11.92,-4.5 8.25,3.25 3.35,-6.84 7.34,-1.45 4,4 3.11,1.3 4.12,5.65 7,1 -0.74,4.9 -6.19,6.82 -4,13 -2.73,-0.79 -0.15,-3.95 -4,-3 2.03,4.5 0.5,6.47 0,12 4.54,-4.32 4.24,3.28 4,7 2.49,0.86 7.73,0.9 8,5 -1.03,1.5 -4.56,-0.76 -4,3 2.19,0.39 2.48,4.82 6,5 -1.81,4.88 0.56,10.11 2,15 -2.22,0.93 -4.87,2.11 -7,1 0.28,4.19 -3.49,3.41 -3,8 1.59,-3.18 3.77,2.55 6.74,-0.26 2.98,-2.81 5.52,-2.85 8.26,-5.74 11.14,-7.34 18.59,-17.61 28.25,-26.75 9.66,-9.14 15.59,-22.49 24.75,-31.25 0,0 -0.16,-0.56 0,-1 0.5,-2.28 2.97,-3.63 3,-6 -4.7,5.15 -7.79,13.76 -16,8 -0.19,-3.66 -1.48,-6.55 -3,-10 -1.82,3.52 -2.32,-1.55 -5,1 -0.12,-4.07 -2.27,-7.45 -4,-11 3.21,0.41 5.72,1.02 9,2 -1.18,-2.83 -4.8,-3.36 -6,-6 1.81,-3.25 1.93,-6.18 3,-10 1.26,3.45 3.33,6.08 7,8 1.87,-4.03 3.53,-3.67 -0.08,-6.92 -3.6,-3.26 -0.7,-3.76 0.08,-7.08 -3.65,-1.64 -4.05,-6.37 -9,-4 0.04,-1.79 3.47,-3.85 2,-5 -4.18,3.26 -1.96,-0.35 -1,-3 -5.7,3.96 -7.37,-6.23 -13,-4 2.93,-0.81 4.32,-4.3 1,-6 3.6,-0.45 2.7,-3.78 0,-5 -7.97,12.67 -21.07,29.98 -32,35 0.06,-4.41 6.65,-9.08 10,-13 z"
         id="path16" />
    </g>
    <g
       fill="None"
       fill-opacity="0"
       stroke="#bbccfa"
       stroke-opacity="1"
       stroke-width="0.3"
       id="g17"
       transform="matrix(0.26458333,0,0,0.26458333,-111.86543,-29.514676)">
      <path
         d="m 785,497 c -5.92,4.27 -12.52,7.68 -18.92,11.08 -6.41,3.39 -13.72,5.65 -20.06,8.94 -6.33,3.3 -18.18,2.11 -19.02,9.98 4.78,-3.29 9.64,-1.85 15,-3 1.15,3.68 -0.7,13.32 4,13 1,3.27 -1.6,3.91 -3,6 4.31,-0.95 8.81,6.85 4,10 5.15,1.17 2.14,14.47 9,8 -2.33,6.62 -1.16,14.58 -1,22 4.32,-0.49 5.72,2.44 11,1 0.43,5.14 -4.23,6.09 -8,7 1.18,3.85 5.82,6.06 5,11 -3.39,-0.48 -5.49,3.04 -8,4 16.93,-3.94 32.88,-14.3 48,-23 8.53,-6.6 17.63,-12.99 26,-20 -2.74,2.89 -5.28,2.93 -8.26,5.74 -2.97,2.81 -5.15,-2.92 -6.74,0.26 -0.49,-4.59 3.28,-3.81 3,-8 2.13,1.11 4.78,-0.07 7,-1 -1.44,-4.89 -3.81,-10.12 -2,-15 -3.52,-0.18 -3.81,-4.61 -6,-5 -0.56,-3.76 2.97,-1.5 4,-3 -0.27,-4.1 -5.51,-4.14 -8,-5 0.24,-3.72 0.54,-11.32 -4,-7 0.5,-5.53 2.03,-7.5 0,-12 3.85,-0.95 1.27,2.21 4,3 -2.19,-6.18 3.26,-8.1 4,-13 -2.88,4.65 -3.89,0.3 -7,-1 3.34,-5.45 -0.65,-10.84 -4,-4 3.67,-7.75 -4.46,-7.88 -8.25,-3.25 -3.79,4.63 -10.42,0.52 -9.75,6.25 -1.26,-2.21 -5.76,-0.64 -2,-4 z"
         id="path17" />
    </g>
    <g
       fill="None"
       fill-opacity="0"
       stroke="#d7e6f4"
       stroke-opacity="1"
       stroke-width="0.3"
       id="g18"
       transform="matrix(0.26458333,0,0,0.26458333,-111.86543,-29.514676)">
      <path
         d="m 829,563 c -8.37,7.01 -17.47,13.4 -26,20 15.32,-8.81 32.38,-20.93 44.25,-34.75 11.87,-13.83 28.61,-26.23 34.75,-43.25 -9.16,8.76 -15.09,22.11 -24.75,31.25 -9.66,9.14 -17.11,19.41 -28.25,26.75 z"
         id="path18" />
    </g>
    <g
       fill="#c8bdf8"
       fill-opacity="1"
       stroke="None"
       id="g20"
       transform="matrix(0.26458333,0,0,0.26458333,-111.86543,-29.514676)">
      <path
         d="m 793,323 c 14.96,14.96 21.52,35.82 18,57 2.49,-5.23 1.47,-12.29 2.78,-17.22 1.31,-4.93 10,-1.04 12.22,-0.78 1.12,-2.32 2.64,-3.43 4,-1 0.92,-3.14 0.05,-3.46 -1,-6 4.7,-4.64 4.36,-9.92 6.92,-16.08 2.55,-6.17 2.1,-11.9 2.08,-17.92 4.46,-0.18 4.97,1.46 8,1 2.09,-7.24 7.94,-7.63 12,-13 -1.53,-1.27 -3.95,0.46 -5,-2 3.53,-1.43 -0.95,-3.23 0,-6 6.78,1.52 0.66,6.29 7,7 -0.55,-2.37 1.54,-5.14 4,-5 -0.2,-2.23 -3.13,-1.22 -2,-5 2.13,0.57 3.43,2.47 6,3 0.15,-4.53 3.48,-5.79 6,-10 -0.09,-3.16 -3.09,-5.46 -6,-6 -0.2,-2.87 1.46,-4.85 -1,-7 4.9,-1.56 7.79,-5.65 11,-6 -7.55,-38.43 -29.8,-73.8 -58,-102 -7.32,-7.32 -16.65,-13.78 -25,-19 -8.28,-3.57 -15.64,-8.69 -24.3,-11.69 -8.67,-3.01 -16.72,-6.22 -25.48,-9.53 -8.75,-3.31 -19.07,-4.63 -28.22,-6.78 -9.15,-2.15 -23.3,-1.13 -32,-3 -8.7,-1.87 -27.6,0.24 -22.75,9.75 4.85,9.51 15.04,6.86 21.05,13.95 6.01,7.09 14.08,8.42 20.95,14.05 6.88,5.63 12.66,9.53 20,15 7.33,5.47 10.81,12.05 14.98,20.02 4.17,7.97 5.76,21.22 3.76,30.22 -2,9 -5.62,17.32 -10.74,24.26 -5.13,6.94 -12.19,11.96 -16.5,18.5 -4.3,6.55 -12.1,13.19 -16.5,18.5 -4.41,5.31 -17.12,15.05 -10.5,21 6.62,5.94 18,-5.05 26.25,-5.25 8.25,-0.2 23.93,-3.91 32.93,-1.93 9,1.99 18.35,4.81 25.99,9.01 7.65,4.19 13.75,9.16 19.08,15.92 z"
         id="path20" />
    </g>
    <g
       fill="#d8f2f4"
       fill-opacity="1"
       stroke="None"
       id="g21"
       transform="matrix(0.26458333,0,0,0.26458333,-111.86543,-29.514676)">
      <path
         d="m 567,148 c 11.66,-4.86 21.05,-11.72 34,-13 12.96,-1.28 23.49,7.38 34,13 -10.25,-6.89 -20.04,-15.31 -34,-14 -13.96,1.31 -22.38,7.86 -34,14 z"
         id="path21" />
    </g>
    <g
       fill="#baeeeb"
       fill-opacity="1"
       stroke="None"
       id="g22"
       transform="matrix(0.26458333,0,0,0.26458333,-111.86543,-29.514676)">
      <path
         d="m 567,148 c -14.3,5.96 -28.18,15.07 -40,26 -8.07,7.46 -17.8,15.53 -23,25 2.48,-1.35 3.06,-5 6,-6 1.2,3.88 -1.77,2.51 -2,5 2.55,2.26 3.49,-2.07 3,-4 3.25,2.72 0.36,6.74 5,7 -1.82,2.98 0.52,6.23 4,6 1.23,-1.49 -0.25,-3.52 3,-4 5.01,-0.01 2.47,9.48 9,7 -6.07,6.51 0.25,17.22 -5,24 -1.43,-2.66 -3.06,-4.56 -3,-8 4.47,0.13 1.41,-3.11 3,-6 -2.27,-1.72 -5.34,-0.73 -8,-1 5.15,4.79 -4.36,12.36 4,9 -4.89,3.32 1.59,6.38 -3,10 -6.56,-2.39 -0.95,-13.77 -10,-13 0.11,3.26 0.45,6.61 -2,9 8.93,0.44 4.99,13.8 6,20 0.97,-3.12 2.96,-2.83 6,-2 -0.08,-4.1 -0.77,-6.81 -1,-11 -3.51,2.62 -2.57,-1.81 -2,-4 3.42,1.09 4.42,5.21 8,5 -2.87,3.78 -2.7,3.78 0,6 -2.88,-0.02 -4.34,2.63 -3,5 1.51,-3.44 4.95,-0.06 8,-1 -3.06,1.48 -4.21,3.63 -5,7 -4.96,0.32 -4.34,-5.29 -9,-5 1.09,6.95 1.24,15.88 6,19 -29.9,42.38 -58.3,96.95 -51,153 2.13,-2.43 0.47,-6.82 1,-10 2.92,4.93 -0.93,13.15 2,18 -2.5,-25.79 2.7,-59.08 10.98,-82.02 8.28,-22.95 18.15,-43.64 33.27,-61.73 15.12,-18.1 28.3,-35.32 48.45,-46.55 20.14,-11.23 42.71,-26.53 66.3,-28.7 3.94,-2.79 -0.58,-5.68 -4,-4 1.01,-3.07 -0.8,-8.85 4,-10 -2.39,-0.72 -4.3,-3.41 0,-3 -3.77,-5.08 -2.24,-12.52 -1,-19 -3.78,-0.75 -2.05,-3.3 -3,-6 6.06,3.89 2.9,-3.28 4,-8 -7.56,1.43 -0.44,-7.03 -3,-11 2.89,-1.05 3.87,-3.57 5,-6 -10.51,-5.62 -21.04,-14.28 -34,-13 -12.95,1.28 -22.34,8.14 -34,13 z"
         id="path22" />
    </g>
    <g
       fill="#b6def5"
       fill-opacity="1"
       stroke="None"
       id="g23"
       transform="matrix(0.26458333,0,0,0.26458333,-111.86543,-29.514676)">
      <path
         d="m 633,215 c 2.88,-0.27 4.73,-1.55 4,3 -1.97,-0.43 -5.14,-2.13 -6,1 2.18,5.93 0.34,16.7 1,25 1.76,-1.58 3.9,-2.76 6,-1 -5.47,2.14 -3.19,6.33 -4,11 7.43,0.82 -0.87,13.82 7,15 -3.94,-0.96 -1.62,2.77 -3,5 1.93,-0.16 5.49,1.92 2,3 1.35,1.89 3.26,2.67 5,4 -1.36,3.73 -2.31,-1.5 -4,1 0.3,4.92 2.54,9.87 0,15 -2.54,5.13 3.58,9.49 -2,14 -2.64,-4.28 -5.69,2.28 -8,3 2.85,1.47 -0.01,5.09 3,5 7.37,-1.49 11.69,-11.02 16.92,-16.08 5.23,-5.06 11.28,-12.03 15.08,-17.92 3.98,-6.16 10.25,-10.76 14,-17 -5.27,1.7 -6.22,-5.68 -11,-6 3.03,-3.84 1.73,-6.72 1.76,-8.39 0.02,-1.68 -0.25,-7.71 -1.76,-10.61 3.23,-0.1 2.1,-4.04 5,-4 -8.19,-3.73 2.27,-21.16 -6,-24 -0.61,-2.71 3.83,-0.34 3,-4 -3.7,-1.1 -2.39,-2.49 1,-2 1.31,-6.52 -5.98,-2.45 -7,-8 2.42,0.4 4.13,-1.24 7,1 2.32,-0.96 1.45,-4.97 5,-4 0.12,-3.48 -1.33,-4.6 -5,-5 5.09,-1.77 5.19,-6.15 7,-10 1.66,3.74 6.74,0.94 8,-2 -8.51,-5.05 -16.55,-12.53 -25.25,-17.75 -8.7,-5.21 -18.53,-9.72 -26.75,-15.25 -1.13,2.43 -2.11,4.95 -5,6 2.56,3.97 -4.56,12.43 3,11 -1.1,4.72 2.06,11.89 -4,8 0.95,2.7 -0.78,5.25 3,6 -1.24,6.48 -2.77,13.92 1,19 -4.3,-0.41 -2.39,2.28 0,3 -4.8,1.15 -2.99,6.93 -4,10 3.42,-1.68 7.94,1.21 4,4 z"
         id="path23" />
    </g>
    <g
       fill="#d4ddf5"
       fill-opacity="1"
       stroke="None"
       id="g24"
       transform="matrix(0.26458333,0,0,0.26458333,-111.86543,-29.514676)">
      <path
         d="m 820,170 c 0.98,0.48 1.78,1.23 3,1 -3.24,-4.01 -8.64,-6.27 -12,-10 -5.02,-3.89 -10.14,-7.47 -16,-10 8.35,5.22 17.68,11.68 25,19 z"
         id="path24" />
    </g>
    <g
       fill="#bbe1fa"
       fill-opacity="1"
       stroke="None"
       id="g25"
       transform="matrix(0.26458333,0,0,0.26458333,-111.86543,-29.514676)">
      <path
         d="m 820,170 c 28.2,28.2 50.45,63.57 58,102 13.5,68.69 -5.46,136.87 -50,189 -3.35,3.92 -9.94,8.59 -10,13 10.93,-5.02 24.03,-22.33 32,-35 2.7,1.22 3.6,4.55 0,5 3.32,1.7 1.93,5.19 -1,6 5.63,-2.23 7.3,7.96 13,4 -0.96,2.65 -3.18,6.26 1,3 1.47,1.15 -1.96,3.21 -2,5 4.95,-2.37 5.35,2.36 9,4 -0.78,3.32 -3.68,3.82 -0.08,7.08 3.61,3.25 1.95,2.89 0.08,6.92 -3.67,-1.92 -5.74,-4.55 -7,-8 -1.07,3.82 -1.19,6.75 -3,10 1.2,2.64 4.82,3.17 6,6 -3.28,-0.98 -5.79,-1.59 -9,-2 1.73,3.55 3.88,6.93 4,11 2.68,-2.55 3.18,2.52 5,-1 1.52,3.45 2.81,6.34 3,10 8.21,5.76 11.3,-2.85 16,-8 -0.03,2.37 -2.5,3.72 -3,6 15.37,-14.79 18.7,-36.19 27.08,-55.92 8.37,-19.74 10.68,-46.63 11.92,-69.08 1.24,-22.45 -3.01,-53.17 -7.22,-73.78 -4.21,-20.6 -15.3,-40.94 -24.01,-58.99 -8.7,-18.06 -22.12,-33.74 -35.02,-47.98 C 841.86,184 826.92,168.76 811,161 c 3.36,3.73 8.76,5.99 12,10 -1.22,0.23 -2.02,-0.52 -3,-1 z"
         id="path25" />
    </g>
    <g
       fill="#baeedd"
       fill-opacity="1"
       stroke="None"
       id="g26"
       transform="matrix(0.26458333,0,0,0.26458333,-111.86543,-29.514676)">
      <path
         d="m 441,314 c -1.45,12.62 -3.21,26.99 -6,39 -0.8,11.81 -1.33,26.3 0,38 1.34,11.69 2.66,23.16 5.02,33.98 2.37,10.81 4.78,21.53 8.72,31.28 3.95,9.74 6.24,18.9 11.49,27.51 5.25,8.61 9.05,16.47 14.52,24.48 5.47,8.02 11.22,15.48 17,23 5.78,7.51 12.26,13.26 19,20 6.74,6.73 13.69,11.99 21,18 7.31,6 15.35,11.73 23.56,16.45 8.2,4.71 16.36,10.52 25.47,13.52 9.1,3 17.97,6.2 28,10 10.03,3.81 21.76,6.81 33,6 11.24,-0.81 23.3,8.78 34.99,3.55 11.69,-5.23 -5.11,-16.03 -12.07,-19.47 -6.96,-3.43 -16.19,-10.61 -23.45,-15.55 -7.27,-4.93 -13.41,-12.54 -21.5,-17.5 -8.09,-4.96 -13.47,-13.41 -17.77,-22.22 -4.31,-8.82 -4.98,-23.25 -1.96,-33.01 3.03,-9.75 7.05,-18.24 14.23,-25.77 7.18,-7.54 12.7,-11.51 20.5,-18.5 7.8,-6.99 11.15,-12.29 20.95,-18.05 9.79,-5.77 8.9,-23.07 -3.62,-15.62 -12.53,7.44 -19.31,5.75 -32.08,6.92 -12.77,1.17 -23.26,-0.85 -32.92,-6.08 -9.67,-5.23 -15.93,-9.11 -23.16,-16.84 -7.24,-7.73 -10.8,-14 -14.99,-24.01 C 544.73,383.06 544,370.34 544,359 c 0,-1 -0.03,-2 0,-3 -0.29,1.19 -1.8,3.16 -1,5 -3.36,-0.55 -0.6,-4.09 -2,-5 -4.05,2.57 -3.88,5.22 -8,6 2.78,1.11 0.44,3.49 1,6 -3.09,-2.7 -4.74,2.33 -2,4 -5.47,0.23 0.3,0.61 1,3 -6.92,-1.98 -6.57,6.19 -9.3,9.7 -2.74,3.5 -2.67,15.7 -6.7,9.3 0.47,3.44 -2.56,6.97 2,8 -4.39,2.6 -2.56,11.27 -9,11 6.92,6.4 -7.05,6.52 -5,13 -2.28,1.39 -4.52,2.78 -6,0 -2.04,1.24 -3.73,3.18 -3,6 -2.53,0.29 -4.03,1.05 -6,-1 -1.18,2.36 -1.59,3.18 -4,1 -1.49,5.1 -8.14,7.46 -9,13 -0.75,-3.87 -3.26,-6.62 -3,-11 -2.93,-4.85 0.92,-13.07 -2,-18 -0.53,3.18 1.13,7.57 -1,10 -7.3,-56.05 21.1,-110.62 51,-153 -4.76,-3.12 -4.91,-12.05 -6,-19 4.66,-0.29 4.04,5.32 9,5 0.79,-3.37 1.94,-5.52 5,-7 -3.05,0.94 -6.49,-2.44 -8,1 -1.34,-2.37 0.12,-5.02 3,-5 -2.7,-2.22 -2.87,-2.22 0,-6 -3.58,0.21 -4.58,-3.91 -8,-5 -0.57,2.19 -1.51,6.62 2,4 0.23,4.19 0.92,6.9 1,11 -3.04,-0.83 -5.03,-1.12 -6,2 -1.01,-6.2 2.93,-19.56 -6,-20 2.45,-2.39 2.11,-5.74 2,-9 9.05,-0.77 3.44,10.61 10,13 4.59,-3.62 -1.89,-6.68 3,-10 -8.36,3.36 1.15,-4.21 -4,-9 2.66,0.27 5.73,-0.72 8,1 -1.59,2.89 1.47,6.13 -3,6 -0.06,3.44 1.57,5.34 3,8 5.25,-6.78 -1.07,-17.49 5,-24 -6.53,2.48 -3.99,-7.01 -9,-7 -3.25,0.48 -1.77,2.51 -3,4 -3.48,0.23 -5.82,-3.02 -4,-6 -4.64,-0.26 -1.75,-4.28 -5,-7 0.49,1.93 -0.45,6.26 -3,4 0.23,-2.49 3.2,-1.12 2,-5 -2.94,1 -3.52,4.65 -6,6 5.2,-9.47 14.93,-17.54 23,-25 -14.97,8.7 -25.8,24.67 -38.75,37.25 -12.95,12.57 -19.23,30.38 -27.94,46.06 -8.72,15.67 -17.13,37.73 -19.31,56.69 z"
         id="path26" />
    </g>
    <g
       fill="#c1d5fb"
       fill-opacity="1"
       stroke="None"
       id="g27"
       transform="matrix(0.26458333,0,0,0.26458333,-111.86543,-29.514676)">
      <path
         d="m 666,285 c 15.19,-18.49 36.22,-34.99 49,-55 4.83,-9.55 4.06,-25.04 -2.75,-33.25 -6.81,-8.2 -16.71,-10.68 -25.25,-15.75 -1.26,2.94 -6.34,5.74 -8,2 -1.81,3.85 -1.91,8.23 -7,10 3.67,0.4 5.12,1.52 5,5 -3.55,-0.97 -2.68,3.04 -5,4 -2.87,-2.24 -4.58,-0.6 -7,-1 1.02,5.55 8.31,1.48 7,8 -3.39,-0.49 -4.7,0.9 -1,2 0.83,3.66 -3.61,1.29 -3,4 8.27,2.84 -2.19,20.27 6,24 -2.9,-0.04 -1.77,3.9 -5,4 1.51,2.9 1.78,8.93 1.76,10.61 -0.03,1.67 1.27,4.55 -1.76,8.39 4.78,0.32 5.73,7.7 11,6 -3.75,6.24 -10.02,10.84 -14,17 z"
         id="path27" />
    </g>
    <g
       fill="#a8dee7"
       fill-opacity="1"
       stroke="None"
       id="g28"
       transform="matrix(0.26458333,0,0,0.26458333,-111.86543,-29.514676)">
      <path
         d="m 633,215 c -23.59,2.17 -46.16,17.47 -66.3,28.7 -20.15,11.23 -33.33,28.45 -48.45,46.55 -15.12,18.09 -24.99,38.78 -33.27,61.73 -8.28,22.94 -13.48,56.23 -10.98,82.02 -0.26,4.38 2.25,7.13 3,11 0.86,-5.54 7.51,-7.9 9,-13 2.41,2.18 2.82,1.36 4,-1 1.97,2.05 3.47,1.29 6,1 -0.73,-2.82 0.96,-4.76 3,-6 1.48,2.78 3.72,1.39 6,0 -2.05,-6.48 11.92,-6.6 5,-13 6.44,0.27 4.61,-8.4 9,-11 -4.56,-1.03 -1.53,-4.56 -2,-8 4.03,6.4 3.96,-5.8 6.7,-9.3 2.73,-3.51 2.38,-11.68 9.3,-9.7 -0.7,-2.39 -6.47,-2.77 -1,-3 -2.74,-1.67 -1.09,-6.7 2,-4 -0.56,-2.51 1.78,-4.89 -1,-6 4.12,-0.78 3.95,-3.43 8,-6 1.4,0.91 -1.36,4.45 2,5 -0.8,-1.84 0.71,-3.81 1,-5 0.62,-18.29 13.53,-35.45 24.3,-49.7 10.77,-14.24 28.1,-24.92 43.7,-31.3 0.57,11.61 -1.21,23.8 1,35 2.75,6.01 13.29,16.2 21,10 0.24,-0.2 0,-1 0,-1 -3.01,0.09 -0.15,-3.53 -3,-5 2.31,-0.72 5.36,-7.28 8,-3 5.58,-4.51 -0.54,-8.87 2,-14 2.54,-5.13 0.3,-10.08 0,-15 1.69,-2.5 2.64,2.73 4,-1 -1.74,-1.33 -3.65,-2.11 -5,-4 3.49,-1.08 -0.07,-3.16 -2,-3 1.38,-2.23 -0.94,-5.96 3,-5 -7.87,-1.18 0.43,-14.18 -7,-15 0.81,-4.67 -1.47,-8.86 4,-11 -2.1,-1.76 -4.24,-0.58 -6,1 -0.66,-8.3 1.18,-19.07 -1,-25 0.86,-3.13 4.03,-1.43 6,-1 0.73,-4.55 -1.12,-3.27 -4,-3 z"
         id="path28" />
    </g>
    <g
       fill="#d8e7f4"
       fill-opacity="1"
       stroke="None"
       id="g29"
       transform="matrix(0.26458333,0,0,0.26458333,-111.86543,-29.514676)">
      <path
         d="m 666,285 c -3.8,5.89 -9.85,12.86 -15.08,17.92 -5.23,5.06 -9.55,14.59 -16.92,16.08 0,0 0.24,0.8 0,1 8.23,-0.03 15.65,-15.5 22.25,-20.75 6.59,-5.25 12.77,-16.86 20,-23 7.23,-6.14 12.91,-16.32 20,-23 7.09,-6.68 14.47,-14.79 18.75,-23.25 -12.78,20.01 -33.81,36.51 -49,55 z"
         id="path29" />
    </g>
    <g
       fill="#b5b8f8"
       fill-opacity="1"
       stroke="None"
       id="g30"
       transform="matrix(0.26458333,0,0,0.26458333,-111.86543,-29.514676)">
      <path
         d="m 811,380 c -0.24,1.47 -0.49,0.98 -1,2 -6.98,34.53 -32.9,66.78 -66,80 -0.39,-13.18 4.36,-38.43 -10.98,-44.02 -15.33,-5.6 -23.03,10.89 -33.27,18.77 -10.23,7.88 -17.4,18.1 -27.5,26.5 -10.1,8.4 -17.81,17.9 -28,27 -10.19,9.1 -21.2,19.81 -19.25,34.75 1.95,14.93 13.77,21.03 24.92,29.08 11.15,8.06 21.37,13.9 32.33,22.67 10.97,8.76 20.67,12.08 31.67,22.33 11,10.26 26.92,10.21 41.08,6.92 2.51,-0.96 4.61,-4.48 8,-4 0.82,-4.94 -3.82,-7.15 -5,-11 3.77,-0.91 8.43,-1.86 8,-7 -5.28,1.44 -6.68,-1.49 -11,-1 -0.16,-7.42 -1.33,-15.38 1,-22 -6.86,6.47 -3.85,-6.83 -9,-8 4.81,-3.15 0.31,-10.95 -4,-10 1.4,-2.09 4,-2.73 3,-6 -4.7,0.32 -2.85,-9.32 -4,-13 -5.36,1.15 -10.22,-0.29 -15,3 0.84,-7.87 12.69,-6.68 19.02,-9.98 6.34,-3.29 13.65,-5.55 20.06,-8.94 6.4,-3.4 13,-6.81 18.92,-11.08 15.99,-8.72 29.75,-22.75 43,-36 44.54,-52.13 63.5,-120.31 50,-189 -3.21,0.35 -6.1,4.44 -11,6 2.46,2.15 0.8,4.13 1,7 2.91,0.54 5.91,2.84 6,6 -2.52,4.21 -5.85,5.47 -6,10 -2.57,-0.53 -3.87,-2.43 -6,-3 -1.13,3.78 1.8,2.77 2,5 -2.46,-0.14 -4.55,2.63 -4,5 -6.34,-0.71 -0.22,-5.48 -7,-7 -0.95,2.77 3.53,4.57 0,6 1.05,2.46 3.47,0.73 5,2 -4.06,5.37 -9.91,5.76 -12,13 -3.03,0.46 -3.54,-1.18 -8,-1 0.02,6.02 0.47,11.75 -2.08,17.92 -2.56,6.16 -2.22,11.44 -6.92,16.08 1.05,2.54 1.92,2.86 1,6 -1.36,-2.43 -2.88,-1.32 -4,1 -2.22,-0.26 -10.91,-4.15 -12.22,0.78 -1.31,4.93 -0.29,11.99 -2.78,17.22 z"
         id="path30" />
    </g>
    <g
       fill="#d2ecef"
       fill-opacity="1"
       stroke="None"
       id="g31"
       transform="matrix(0.26458333,0,0,0.26458333,-111.86543,-29.514676)">
      <path
         d="m 544,356 c -0.03,1 0,2 0,3 6.99,-35.2 32.63,-68.75 67,-82 1.11,10.8 -2.36,23.46 2,33 -2.21,-11.2 -0.43,-23.39 -1,-35 -15.6,6.38 -32.93,17.06 -43.7,31.3 -10.77,14.25 -23.68,31.41 -24.3,49.7 z"
         id="path31" />
    </g>
    <g
       fill="#dff6ec"
       fill-opacity="1"
       stroke="None"
       id="g32"
       transform="matrix(0.26458333,0,0,0.26458333,-111.86543,-29.514676)">
      <path
         d="m 435,353 c 2.79,-12.01 4.55,-26.38 6,-39 -3.57,12.62 -5.03,24.78 -6,39 z"
         id="path32" />
    </g>
    <g
       fill="#d8d8f3"
       fill-opacity="1"
       stroke="None"
       id="g33"
       transform="matrix(0.26458333,0,0,0.26458333,-111.86543,-29.514676)">
      <path
         d="m 810,382 c 0.51,-1.02 0.76,-0.53 1,-2 3.52,-21.18 -3.04,-42.04 -18,-57 12.81,16.23 20.99,37.93 17,59 z"
         id="path33" />
    </g>
    <g
       fill="#bad6fa"
       fill-opacity="1"
       stroke="None"
       id="g34"
       transform="matrix(0.26458333,0,0,0.26458333,-111.86543,-29.514676)">
      <path
         d="m 828,461 c -13.25,13.25 -27.01,27.28 -43,36 -3.76,3.36 0.74,1.79 2,4 -0.67,-5.73 5.96,-1.62 9.75,-6.25 3.79,-4.63 11.92,-4.5 8.25,3.25 3.35,-6.84 7.34,-1.45 4,4 3.11,1.3 4.12,5.65 7,1 -0.74,4.9 -6.19,6.82 -4,13 -2.73,-0.79 -0.15,-3.95 -4,-3 2.03,4.5 0.5,6.47 0,12 4.54,-4.32 4.24,3.28 4,7 2.49,0.86 7.73,0.9 8,5 -1.03,1.5 -4.56,-0.76 -4,3 2.19,0.39 2.48,4.82 6,5 -1.81,4.88 0.56,10.11 2,15 -2.22,0.93 -4.87,2.11 -7,1 0.28,4.19 -3.49,3.41 -3,8 1.59,-3.18 3.77,2.55 6.74,-0.26 2.98,-2.81 5.52,-2.85 8.26,-5.74 11.14,-7.34 18.59,-17.61 28.25,-26.75 9.66,-9.14 15.59,-22.49 24.75,-31.25 0,0 -0.16,-0.56 0,-1 0.5,-2.28 2.97,-3.63 3,-6 -4.7,5.15 -7.79,13.76 -16,8 -0.19,-3.66 -1.48,-6.55 -3,-10 -1.82,3.52 -2.32,-1.55 -5,1 -0.12,-4.07 -2.27,-7.45 -4,-11 3.21,0.41 5.72,1.02 9,2 -1.18,-2.83 -4.8,-3.36 -6,-6 1.81,-3.25 1.93,-6.18 3,-10 1.26,3.45 3.33,6.08 7,8 1.87,-4.03 3.53,-3.67 -0.08,-6.92 -3.6,-3.26 -0.7,-3.76 0.08,-7.08 -3.65,-1.64 -4.05,-6.37 -9,-4 0.04,-1.79 3.47,-3.85 2,-5 -4.18,3.26 -1.96,-0.35 -1,-3 -5.7,3.96 -7.37,-6.23 -13,-4 2.93,-0.81 4.32,-4.3 1,-6 3.6,-0.45 2.7,-3.78 0,-5 -7.97,12.67 -21.07,29.98 -32,35 0.06,-4.41 6.65,-9.08 10,-13 z"
         id="path34" />
    </g>
    <g
       fill="#bbccfa"
       fill-opacity="1"
       stroke="None"
       id="g35"
       transform="matrix(0.26458333,0,0,0.26458333,-111.86543,-29.514676)">
      <path
         d="m 785,497 c -5.92,4.27 -12.52,7.68 -18.92,11.08 -6.41,3.39 -13.72,5.65 -20.06,8.94 -6.33,3.3 -18.18,2.11 -19.02,9.98 4.78,-3.29 9.64,-1.85 15,-3 1.15,3.68 -0.7,13.32 4,13 1,3.27 -1.6,3.91 -3,6 4.31,-0.95 8.81,6.85 4,10 5.15,1.17 2.14,14.47 9,8 -2.33,6.62 -1.16,14.58 -1,22 4.32,-0.49 5.72,2.44 11,1 0.43,5.14 -4.23,6.09 -8,7 1.18,3.85 5.82,6.06 5,11 -3.39,-0.48 -5.49,3.04 -8,4 16.93,-3.94 32.88,-14.3 48,-23 8.53,-6.6 17.63,-12.99 26,-20 -2.74,2.89 -5.28,2.93 -8.26,5.74 -2.97,2.81 -5.15,-2.92 -6.74,0.26 -0.49,-4.59 3.28,-3.81 3,-8 2.13,1.11 4.78,-0.07 7,-1 -1.44,-4.89 -3.81,-10.12 -2,-15 -3.52,-0.18 -3.81,-4.61 -6,-5 -0.56,-3.76 2.97,-1.5 4,-3 -0.27,-4.1 -5.51,-4.14 -8,-5 0.24,-3.72 0.54,-11.32 -4,-7 0.5,-5.53 2.03,-7.5 0,-12 3.85,-0.95 1.27,2.21 4,3 -2.19,-6.18 3.26,-8.1 4,-13 -2.88,4.65 -3.89,0.3 -7,-1 3.34,-5.45 -0.65,-10.84 -4,-4 3.67,-7.75 -4.46,-7.88 -8.25,-3.25 -3.79,4.63 -10.42,0.52 -9.75,6.25 -1.26,-2.21 -5.76,-0.64 -2,-4 z"
         id="path35" />
    </g>
    <g
       fill="#d7e6f4"
       fill-opacity="1"
       stroke="None"
       id="g36"
       transform="matrix(0.26458333,0,0,0.26458333,-111.86543,-29.514676)">
      <path
         d="m 829,563 c -8.37,7.01 -17.47,13.4 -26,20 15.32,-8.81 32.38,-20.93 44.25,-34.75 11.87,-13.83 28.61,-26.23 34.75,-43.25 -9.16,8.76 -15.09,22.11 -24.75,31.25 -9.66,9.14 -17.11,19.41 -28.25,26.75 z"
         id="path36" />
    </g>
  </g>
</svg>
